<?xml version="1.0" encoding="utf-8"?>
<!-- Generator: Adobe Illustrator 21.1.0, SVG Export Plug-In . SVG Version: 6.00 Build 0)  -->
<svg version="1.1" id="Layer_1" xmlns="http://www.w3.org/2000/svg" xmlns:xlink="http://www.w3.org/1999/xlink" x="0px" y="0px"
	 width="512px" height="512px" viewBox="0 0 512 512" style="enable-background:new 0 0 512 512;" xml:space="preserve">
<style type="text/css">
	.st0{fill:#E6AB02;}
	.st1{fill:#7570B3;}
	.st2{opacity:0.25;fill:#E6AB02;}
	.st3{font-family:'JosefinSans-Thin';}
	.st4{font-size:24px;}
	.st5{enable-background:new    ;}
	.st6{font-family:'JosefinSans-Bold';}
</style>
<g>
	<polygon class="st0" points="417.7,93.2 403.6,109.9 417.7,126.6 431.8,109.9 	"/>
	<polygon class="st1" points="278.8,168 199.9,195.1 186.5,112.8 	"/>
	<polygon class="st1" points="510.9,264 478.2,396.8 352.7,342.2 	"/>
	<polygon class="st1" points="170,232.2 132,216.4 153.9,181.6 	"/>
	<polygon class="st1" points="508.2,144 518.6,183.8 477.7,187.3 	"/>
	<polygon class="st1" points="230.9,77.9 210.6,60.1 231.7,43.1 	"/>
	<polygon class="st1" points="409.1,53.6 412.6,80.4 385.6,79.4 	"/>
	<polygon class="st1" points="237.3,25.9 238.3,16.9 247,19.4 	"/>
	<polygon class="st1" points="287,41.9 276.1,49 271,37.1 	"/>
	<polygon class="st1" points="452.5,147.3 436.2,157.9 428.6,140.1 	"/>
	<polygon class="st1" points="360.3,39 348.6,33.3 356.2,22.8 	"/>
	<polygon class="st1" points="466.9,94.6 479.1,90.1 481.5,102.9 	"/>
	<polygon class="st1" points="359.5,299.9 357.6,312.8 345.3,308.9 	"/>
	<polygon class="st1" points="166.7,308.6 210,279.2 231.7,326.8 	"/>
	<polygon class="st2" points="417.7,25.9 346.8,109.9 417.7,193.9 488.6,109.9 	"/>
	<polygon class="st2" points="179.8,135.9 109,219.9 179.8,303.8 250.7,219.9 	"/>
	<polygon class="st2" points="87.5,156.1 -6.2,267.2 87.5,378.3 181.3,267.2 	"/>
	<polygon class="st2" points="32.2,92.7 -137.4,293.7 32.2,494.6 201.8,293.7 	"/>
	<polygon class="st2" points="465.7,50.4 437.8,83.5 465.7,116.6 493.6,83.5 	"/>
	<polygon class="st2" points="190.3,189 164.3,219.9 190.3,250.7 216.3,219.9 	"/>
</g>
<text transform="matrix(1 0 0 1 288.1244 219.8629)" class="st3 st4">No file open.</text>
<text transform="matrix(1 0 0 1 289.9462 465.6462)" class="st5"><tspan x="0" y="0" class="st3 st4">Looks like you need to</tspan><tspan x="-213.1" y="28.8" class="st1 st6 st4"><a href="/" target="_blank">create or open an SVG file</a></tspan><tspan x="46.4" y="28.8" class="st3 st4"> in the main app.</tspan></text>
</svg>
