<?xml version="1.0" encoding="utf-8"?>
<!-- Generator: Adobe Illustrator 21.0.2, SVG Export Plug-In . SVG Version: 6.00 Build 0)  -->
<svg version="1.1" id="Layer_1" xmlns="http://www.w3.org/2000/svg" xmlns:xlink="http://www.w3.org/1999/xlink" x="0px" y="0px"
	 viewBox="0 0 512 512" style="enable-background:new 0 0 512 512;" xml:space="preserve">
<g id="o7wr0C.tif">
	<g>
		<path d="M78.3,80.4c2.1-2.6,4.1-5.2,6.2-7.8c12.2-9,24.2-18.3,36.7-26.8c19.5-13.3,21.1-13.4,37.4,3.4C168.1,59.1,179,62.6,192,62
			c28.1-1.2,44.6-13.2,53.5-40.1c3.7-11.3,9.7-17.4,22.6-15c15.4,2.8,31.1,3.9,46.4,7c17.3,3.6,18.1,6.8,19.2,24.6
			c0.6,9.3,3.4,19.7,8.7,27.1c9.8,13.8,24.6,22,41.5,24.9c6.2,1.1,13.3,0.4,19.3-1.6c9.2-3.1,17.7-8,26.5-12.2
			c3.2,2.6,6.5,5.1,9.7,7.7c9.2,13.1,18.8,26,27.5,39.4c11.3,17.4,10,20.4-5.2,35.4c-5.8,5.7-10.9,13.9-12.7,21.7
			c-6.7,30.1,10.1,55.9,39.8,63.5c15.4,3.9,18.5,7.3,16.9,23.3c-1.6,15.6-4.1,31.2-7.4,46.4c-4.1,18.4-6.3,20.1-25.5,18.2
			c-13.2-1.3-23.4,3.4-32.5,12c-20.9,20-24.5,43.8-11,69.2c2.7,5,4.2,10.7,6.3,16c-3.1,3.9-6.2,7.8-9.2,11.7
			c-12.1,8.4-24,17.2-36.3,25.3c-17.5,11.5-22.8,10.9-36.3-5.1c-7.9-9.4-17.6-13.4-29.2-14c-28.2-1.5-49.3,13.4-57.4,40.2
			c-5.1,16.9-7.8,19-25.5,17.5c-11.1-1-22.2-2.3-33.2-4.3c-29.5-5.2-29.3-5.3-28.9-35.8c0.2-18.8-9.7-32.3-24.9-41.6
			c-15-9.2-30.7-10.6-47-1.3c-8.5,4.8-18,7.8-27.1,11.6c-3.2-2.6-6.5-5.1-9.7-7.7c-8.4-11.6-17.1-23-25.3-34.8
			c-13.1-18.8-13.2-21.9,3.4-37.4c11.6-10.8,15.3-23.5,12.9-38.1c-3.8-23.4-11.4-43.6-38.5-50.4c-17.1-4.3-18.7-8.3-16.7-26
			c1.6-14.4,4.9-28.5,6.4-42.9c1.5-14.3,10-18.2,22.7-18.4c29.2-0.6,52.4-20.8,56.1-49.9c0.9-7.3-1.5-15.3-3.7-22.6
			C85.6,96.9,81.7,88.8,78.3,80.4z M362.7,331.2c43.9-59.1,31.9-142.1-26.8-185.7c-59.1-43.9-141.6-31.1-186.3,28.9
			c-42,56.4-29.5,140.3,27.3,183C235.6,401.4,319.4,389.6,362.7,331.2z"/>
	</g>
</g>
</svg>
