<?xml version="1.0" encoding="utf-8"?>
<!-- Generator: Adobe Illustrator 21.0.2, SVG Export Plug-In . SVG Version: 6.00 Build 0)  -->
<svg version="1.1" id="Layer_1" xmlns="http://www.w3.org/2000/svg" xmlns:xlink="http://www.w3.org/1999/xlink" x="0px" y="0px"
	 viewBox="0 0 512 512" style="enable-background:new 0 0 512 512;" xml:space="preserve">
<g id="ABY8eG.tif">
	<g>
		<path d="M334.8,6c13.5,12.2,27.1,24.3,40.5,36.6c29.5,27.2,58.8,54.4,88.3,81.7c5.3,4.9,10.3,10.1,16,14.4
			c7.4,5.5,9.7,12.8,9.7,21.3c0,98.4,0,196.9-0.1,295.3c0,15-7.4,22-22.5,22c-55.8,0.1-111.6,0-167.4,0c-8.7,0-15.9-3.6-19-11.6
			c-2.7-7-3-15.4,4.2-20.3c4.6-3.1,10.8-5.1,16.4-5.2c47.6-0.4,95.2-0.3,142.8-0.1c7.1,0,8.8-2.6,8.8-9.2c-0.2-65-0.3-129.9,0-194.9
			c0-7.9-2.3-9.9-10.1-9.9c-43.9,0.4-87.8-0.4-131.6,0.5c-16.2,0.3-23.5-10.2-23.4-23.5c0.4-50.1,0-100.2,0.3-150.2
			c0-7.3-1.8-9.9-9.6-9.8c-44.1,0.4-88.3,0.1-132.4,0.1c-10.4,0-11.1,0.7-11.1,10.8c0,58-0.1,116,0.1,174c0,8.7-2.1,15.1-10.6,19.2
			c-10.9,5.2-25.2-2.5-25.2-14.7c-0.1-69.7-0.2-139.3,0.3-209c0-4.5,0.6-17.6,12.5-17.6C186.5,6,259.9,6,334.8,6z M324.7,118.5
			c0.1,0,0.1,0,0.2,0c0,21.1,0.1,42.1,0,63.2c0,5.5,1.3,8.8,7.9,8.8c37.7-0.2,75.3-0.1,113-0.2c2,0,4.7-0.6,5.9-2
			c2.9-3.4,0.5-24.3-2.9-27.4c-39-36.1-78-72.2-117.1-108.3c-1.3-1.2-3.3-1.7-5-2.5c-0.6,1.7-1.8,3.5-1.8,5.2
			C324.7,76.4,324.7,97.5,324.7,118.5z"/>
		<path d="M107.1,505.1c-6-3.4-8.5-8.5-8.4-15.2c0.1-17.3-0.3-34.7,0.2-52c0.2-6.5-2.2-8.1-8.2-8c-16.3,0.2-32.7,0.3-49.1-0.2
			c-7.4-0.2-14.5-3.4-17.1-10.8c-2.7-7.6-3.3-16.7,4.4-21.6c5.4-3.5,12.8-5.1,19.5-5.4c14.1-0.8,28.2-0.4,42.4-0.1
			c6,0.1,8.3-1.6,8.1-8c-0.4-17.3-0.2-34.7-0.1-52c0-10,8.8-19.1,18.1-18.9c9.8,0.2,17.4,8.1,17.5,18.4c0.2,17.1,0.5,34.2,0,51.3
			c-0.2,7.4,2.5,9.5,9.4,9.3c17.3-0.3,34.7-0.2,52-0.1c12,0.1,20.9,7.9,21.1,18.3c0.2,11.5-7.4,19.7-19.1,19.9
			c-16.8,0.3-33.7,0.1-50.5,0.1c-12.8,0-12.7-0.1-12.7,13c0,15.4-0.2,30.7,0,46.1c0.1,7.5-1.7,13.7-9.3,16.8
			C124.4,506.2,108.4,505.9,107.1,505.1z"/>
	</g>
</g>
</svg>
